<svg width="1551" height="817" viewBox="0 0 1551 817" fill="none" xmlns="http://www.w3.org/2000/svg">
<path d="M683.791 771.392C701.865 773.66 720.017 775.254 738.21 776.171L746.531 776.54V793.793H683.791V771.392ZM683.791 771.392V40.9113H683.608V731.054H620.868V40.9113H620.686V731.054H557.945V40.9113H557.764V731.054H519.097M683.791 771.392C628.8 764.54 574.766 751.462 522.728 732.408L519.097 731.054M519.097 731.054C511.012 728.066 502.984 724.916 495.023 721.608M519.097 731.054H495.023V721.608M495.023 721.608V40.9113H494.841V668.313H432.101V40.9113H431.918V668.313H390.533M495.023 721.608C460.068 707.185 426.283 690.075 393.972 670.431L390.533 668.313M390.533 668.313C383.328 663.904 376.207 659.354 369.179 654.669M390.533 668.313H369.179V654.669M369.179 654.669V40.9113H368.996V605.574H306.256V40.9113H306.074V542.833H243.333V40.9113H243.151V480.094H184.813M369.179 654.669C298.476 607.754 236.361 549.039 185.546 481.085L184.813 480.094M184.813 480.094L180.411 474.133M184.813 480.094H180.411V474.133M180.411 474.133V40.9113H180.228V417.353H142.87M180.411 474.133C168.158 457.346 156.62 440.049 145.828 422.288L142.87 417.353M142.87 417.353C133.843 402.271 125.376 386.859 117.489 371.15M142.87 417.353H117.489V371.15M117.489 371.15V40.9113H117.306V291.873H83.2554M117.489 371.15C104.78 345.951 93.5482 320.034 83.8505 293.53L83.2554 291.873M83.2554 291.873C71.2693 258.934 61.6813 225.172 54.5657 190.849M83.2554 291.873H54.5657V190.849M54.5657 190.849V40.9113H39.1339C39.1483 91.2867 44.3192 141.527 54.5657 190.849Z" stroke="#0000FF" stroke-width="0.714241"/>
<path d="M809.453 776.376L809.635 776.367V40.9114H809.453V776.376ZM809.453 776.376C788.552 777.324 767.62 777.381 746.713 776.548M809.453 776.376V793.794H746.713V776.548M746.713 776.548V40.9114H746.531V776.54L746.713 776.548Z" stroke="#0000FF" stroke-width="0.714241"/>
<path d="M872.376 770.892C927.314 763.759 981.261 750.393 1033.18 731.054H998.403V40.9114H998.221V731.054H935.481V40.9114H935.298V731.054H872.558V40.9114H872.376V770.892ZM872.376 770.892C851.552 773.626 830.618 775.453 809.635 776.367V793.794H872.376V770.892Z" stroke="#0000FF" stroke-width="0.714241"/>
<path d="M1061.14 719.989C1095.96 705.392 1129.59 688.115 1161.74 668.313H1124.25V40.9113H1124.07V668.313H1061.33V40.9113H1061.14V719.989ZM1061.14 719.989C1051.91 723.885 1042.58 727.574 1033.18 731.054H1061.14V719.989Z" stroke="#0000FF" stroke-width="0.714241"/>
<path d="M1186.99 652.072C1208.41 637.675 1229.06 622.154 1248.84 605.574H1187.17V40.9114H1186.99V652.072ZM1186.99 652.072C1178.69 657.669 1170.27 663.084 1161.74 668.313H1186.99V652.072Z" stroke="#0000FF" stroke-width="0.714241"/>
<path d="M1249.91 604.681C1293.79 567.844 1333.23 526.034 1367.46 480.094H1313.02V40.9113H1312.83V542.833H1250.09V40.9113H1249.91V604.681ZM1249.91 604.681L1248.84 605.574H1249.91V604.681Z" stroke="#0000FF" stroke-width="0.714241"/>
<path d="M1375.76 468.731C1387.69 452.089 1398.92 434.947 1409.4 417.353H1375.94V40.9113H1375.76V468.731ZM1375.76 468.731C1373.03 472.553 1370.27 476.338 1367.46 480.094H1375.76V468.731Z" stroke="#0000FF" stroke-width="0.714241"/>
<path d="M1438.68 363.302C1450.06 340.052 1460.19 316.209 1469.02 291.873H1438.86V40.9114H1438.68V363.302ZM1438.68 363.302C1429.69 381.729 1419.93 399.762 1409.4 417.353H1438.68V363.302Z" stroke="#0000FF" stroke-width="0.714241"/>
<path d="M1501.6 170.755C1509.25 127.897 1513.12 84.4469 1513.14 40.9113H1501.6V170.755ZM1501.6 170.755C1494.23 211.988 1483.33 252.509 1469.02 291.873H1501.6V170.755Z" stroke="#0000FF" stroke-width="0.714241"/>
<path d="M779.439 815.727C973.349 814.871 1159.85 741.128 1301.91 609.14C1410.3 508.759 1487.72 379.474 1525.04 236.534C1541.65 172.655 1550.03 106.915 1549.96 40.9132H1286.77L1320.57 0.357135H1207.18L1240.98 40.9132H1086.18L1119.88 0.467863H1006.49L1040.2 40.9132L639.005 40.9123L669.08 4.82317H555.694L585.769 40.9123H344.193L373.375 5.89355H259.99L289.172 40.9123H0.357747C0.110165 234.85 72.8361 421.783 204.083 564.563C304.168 673.827 433.497 752.084 576.726 790.049C642.869 807.506 711.032 816.14 779.439 815.727Z" stroke="black" stroke-width="0.714241"/>
</svg>
