<svg width="1551" height="776" viewBox="0 0 1551 776" fill="none" xmlns="http://www.w3.org/2000/svg">
<path d="M1501.6 643.786C1509.3 686.903 1513.16 730.618 1513.14 774.418L1513.14 775.207H1501.6V643.786ZM1501.6 643.786V524.247H1469.58M1501.6 643.786C1494.33 603.104 1483.62 563.114 1469.58 524.247M1469.58 524.247L1468.42 521.01C1459.73 497.25 1449.8 473.962 1438.68 451.239M1469.58 524.247H1438.86V775.207H1438.68V451.239M1438.68 451.239V398.767H1410.35M1438.68 451.239C1429.96 433.366 1420.51 415.86 1410.35 398.767M1410.35 398.767L1406.44 392.253C1396.81 376.386 1386.57 360.894 1375.76 345.81M1410.35 398.767H1375.94V775.207H1375.76V345.81M1375.76 345.81V336.027H1368.63M1375.76 345.81C1373.42 342.52 1371.04 339.259 1368.63 336.027M1368.63 336.027L1366.73 333.455C1316.85 266.761 1256.09 208.955 1186.99 162.469M1368.63 336.027H1313.02V775.207H1312.83V273.286H1250.09V775.207H1249.91V210.547H1187.17V775.207H1186.99V162.469M1186.99 162.469V147.806H1164.3M1186.99 162.469C1179.52 157.432 1171.96 152.545 1164.3 147.806M1164.3 147.806L1158.3 144.11C1127.19 125.197 1094.72 108.632 1061.14 94.5516M1164.3 147.806H1124.25V775.207H1124.07V147.806H1061.33V775.207H1061.14V94.5516M1061.14 94.5516V85.0668H1037.41M1061.14 94.5516C1053.29 91.2433 1045.38 88.0802 1037.41 85.0668M1037.41 85.0668L1029.54 82.1325C978.739 63.529 926.027 50.6222 872.375 43.6489M1037.41 85.0668H998.403V775.207H998.221V85.0668H935.48V775.207H935.298V85.0668H872.558V775.207H872.375V43.6489M872.375 43.6489V22.3263H809.635V38.1734L814.062 38.3699C833.563 39.3487 853.016 41.1097 872.375 43.6489Z" stroke="#0000FF" stroke-width="0.714241"/>
<path d="M809.453 38.1651L809.635 38.1734V775.207H809.453V38.1651ZM809.453 38.1651V22.3263H746.713V37.9925M809.453 38.1651C788.551 37.2171 767.619 37.1595 746.713 37.9925M746.713 37.9925L746.531 38.0008V775.207H746.713V37.9925Z" stroke="#0000FF" stroke-width="0.714241"/>
<path d="M683.79 43.1488C704.621 40.5342 725.553 38.8165 746.531 38.0008V22.3263H683.79V43.1488ZM683.79 43.1488L682.268 43.3324C625.016 50.5948 568.824 64.6035 514.863 85.0668H557.763V775.207H557.945V85.0668H620.685V775.207H620.868V85.0668H683.608V775.207H683.79V43.1488Z" stroke="#0000FF" stroke-width="0.714241"/>
<path d="M495.023 92.9321C501.593 90.2034 508.209 87.5806 514.863 85.0667H495.023V92.9321ZM495.023 92.9321L489.259 95.3285C454.184 110.163 420.318 127.709 387.969 147.806H431.918V775.207H432.101V147.806H494.841V775.207H495.023V92.9321Z" stroke="#0000FF" stroke-width="0.714241"/>
<path d="M369.178 159.872C375.372 155.743 381.637 151.72 387.969 147.806H369.178V159.872ZM369.178 159.872L364.068 163.28C294.58 210.231 233.572 268.644 183.647 336.027H243.151V775.207H243.333V273.286H306.073V775.207H306.255V210.547H368.996V775.207H369.178V159.872Z" stroke="#0000FF" stroke-width="0.714241"/>
<path d="M180.411 340.408L183.647 336.027H180.411V340.408ZM180.411 340.408L180.282 340.581C166.583 359.359 153.783 378.776 141.923 398.767H180.228V775.207H180.411V340.408Z" stroke="#0000FF" stroke-width="0.714241"/>
<path d="M117.489 443.391C125.102 428.232 133.253 413.347 141.923 398.767H117.489V443.391ZM117.489 443.391L115.734 446.867C103.235 472.001 92.2007 497.838 82.6876 524.247H117.306V775.207H117.489V443.391Z" stroke="#0000FF" stroke-width="0.714241"/>
<path d="M54.5654 623.691C61.5647 589.917 70.9627 556.685 82.6876 524.247H54.5654V623.691ZM54.5654 623.691L54.1022 625.885C44.0666 675.024 39.0513 725.055 39.1336 775.207H54.5654V623.691Z" stroke="#0000FF" stroke-width="0.714241"/>
<path d="M1549.9 765.192C1547.62 570.265 1471.72 383.407 1337.43 242.104C1238.56 137.713 1112.58 62.91 973.594 26.0702C885.775 2.92343 794.584 -4.6806 704.144 3.60164C533.912 19.0902 373.627 90.6191 248.41 206.979C138.12 309.118 59.9384 441.145 23.4009 586.958C8.0363 648.526 0.297201 711.75 0.357466 775.207H289.186L259.989 740.171H373.375L344.179 775.207H585.782L555.694 739.101H669.079L638.991 775.207H1040.21L1006.49 734.746H1119.88L1086.16 775.207H1240.99L1207.18 734.635H1320.57L1286.76 775.207H1549.96L1549.9 765.192Z" stroke="black" stroke-width="0.714241"/>
</svg>
