<?xml version="1.0" standalone="no"?>
<!DOCTYPE svg PUBLIC "-//W3C//DTD SVG 1.1//EN" "http://www.w3.org/Graphics/SVG/1.1/DTD/svg11.dtd">
<svg version="1.1" xmlns="http://www.w3.org/2000/svg" viewBox="0 0 898.809832022409 895.3057825150677" width="1797.619664044818" height="1790.6115650301354"><!-- svg-source:excalidraw --><metadata></metadata><defs><style class="style-fonts">
      </style></defs><g stroke-linecap="round" transform="translate(307.3230425082093 38.65419643232576) rotate(0 141.86011431013466 18.09344051039146)"><path d="M0 0 C100.83 -0.23, 204.05 0.26, 283.72 0 M0 0 C80.73 -2.1, 159.73 -1.15, 283.72 0 M283.72 0 C284.91 14.55, 283.36 29.86, 283.72 36.19 M283.72 0 C284 12.28, 284.35 24.76, 283.72 36.19 M283.72 36.19 C212.18 39.12, 141.5 39.27, 0 36.19 M283.72 36.19 C184.81 36.51, 85.04 37.23, 0 36.19 M0 36.19 C1.36 24.2, 1.11 9.87, 0 0 M0 36.19 C-0.15 28.45, 0.72 21.47, 0 0" stroke="#1971c2" stroke-width="1" fill="none"></path></g><g stroke-linecap="round" transform="translate(235.64796759725414 73.6420584727768) rotate(0 213.56394616091666 17.944330452029376)"><path d="M0 0 C113.39 1.08, 227.06 2.13, 427.13 0 M0 0 C164.48 1.2, 329.91 0.61, 427.13 0 M427.13 0 C427.08 14.76, 428.09 26.53, 427.13 35.89 M427.13 0 C427.84 12.52, 426.73 23.74, 427.13 35.89 M427.13 35.89 C260.31 38.11, 94.34 37.02, 0 35.89 M427.13 35.89 C293.37 36.49, 159.4 35.93, 0 35.89 M0 35.89 C0.85 22.41, -2 8.33, 0 0 M0 35.89 C0.77 22.57, -0.77 8.33, 0 0" stroke="#1971c2" stroke-width="1" fill="none"></path></g><g stroke-linecap="round" transform="translate(199.8785947398851 110.24431751328254) rotate(0 248.48552182931286 17.811196471348964)"><path d="M0 0 C117.6 1.19, 236.18 1.35, 496.97 0 M0 0 C133.22 -1.94, 265.97 -1.58, 496.97 0 M496.97 0 C497.66 11.45, 497.68 23.27, 496.97 35.62 M496.97 0 C496.69 10.53, 498.09 21.72, 496.97 35.62 M496.97 35.62 C316.19 36.89, 134.69 37.8, 0 35.62 M496.97 35.62 C346.3 37.58, 195.42 37.88, 0 35.62 M0 35.62 C-1.95 22.57, 1.59 9.28, 0 0 M0 35.62 C-1.08 25.52, -0.51 14.83, 0 0" stroke="#1971c2" stroke-width="1" fill="none"></path></g><g stroke-linecap="round" transform="translate(165.11191210197933 144.92257593104134) rotate(0 283.88895415812425 18.232561447997668)"><path d="M0 0 C153.43 -0.87, 305.22 -1.96, 567.78 0 M0 0 C222.54 0.79, 444.61 0.48, 567.78 0 M567.78 0 C568.67 14.26, 568.11 28.69, 567.78 36.47 M567.78 0 C568.5 12.03, 568.24 24.61, 567.78 36.47 M567.78 36.47 C355.17 36.46, 142.37 36.23, 0 36.47 M567.78 36.47 C341.81 36.57, 115.44 36.52, 0 36.47 M0 36.47 C2.1 24.7, 0.19 14.97, 0 0 M0 36.47 C0.05 23.31, -0.5 9.22, 0 0" stroke="#1971c2" stroke-width="1" fill="none"></path></g><g stroke-linecap="round" transform="translate(129.32964369367528 180.82616366456983) rotate(0 318.2968479249586 17.880735404847144)"><path d="M0 0 C235.25 -2.66, 471.76 -1.56, 636.59 0 M0 0 C176.11 -1.68, 352.38 -1.48, 636.59 0 M636.59 0 C636.93 12.1, 637.52 20.76, 636.59 35.76 M636.59 0 C637.56 8.75, 637.66 18.31, 636.59 35.76 M636.59 35.76 C464.37 38.3, 292.87 38.41, 0 35.76 M636.59 35.76 C450.36 37.68, 263.65 37.11, 0 35.76 M0 35.76 C-0.45 26.52, 0.96 12.79, 0 0 M0 35.76 C-0.72 23.04, 0.92 12.05, 0 0" stroke="#1971c2" stroke-width="1" fill="none"></path></g><g stroke-linecap="round" transform="translate(94.01532125409341 216.9931876471568) rotate(0 355.25244752150377 17.452651500127047)"><path d="M0 0 C277.95 2.04, 554.25 1.85, 710.5 0 M0 0 C258.77 0.54, 516.94 0.55, 710.5 0 M710.5 0 C711.33 10.4, 709.52 24.59, 710.5 34.91 M710.5 0 C711.48 9.73, 710.44 18.59, 710.5 34.91 M710.5 34.91 C439.25 36.97, 166.35 37.1, 0 34.91 M710.5 34.91 C449.92 36.1, 189.21 36.8, 0 34.91 M0 34.91 C1.3 23.32, 0.74 14.54, 0 0 M0 34.91 C1.11 24.33, 1.11 12.44, 0 0" stroke="#1971c2" stroke-width="1" fill="none"></path></g><g stroke-linecap="round" transform="translate(93.91479952747892 252.9002416471203) rotate(0 355.19872039176164 17.553173226741478)"><path d="M0 0 C180.32 -2.05, 361.53 -2.45, 710.4 0 M0 0 C203.25 -0.89, 406.57 -1, 710.4 0 M710.4 0 C709.52 14.49, 709.82 26.66, 710.4 35.11 M710.4 0 C710.37 10.13, 711.49 20.03, 710.4 35.11 M710.4 35.11 C459.15 37.69, 208.54 37.55, 0 35.11 M710.4 35.11 C458.72 32.97, 207 32.58, 0 35.11 M0 35.11 C0.49 21.57, 0.01 7.44, 0 0 M0 35.11 C0.54 26.35, 0.26 19.84, 0 0" stroke="#1971c2" stroke-width="1" fill="none"></path></g><g stroke-linecap="round" transform="translate(58.73362273398453 287.7317957455356) rotate(0 390.9066748273925 17.536515401042067)"><path d="M0 0 C306.55 -1.99, 611.98 -1.53, 781.81 0 M0 0 C263.33 -1.15, 526.69 -1.03, 781.81 0 M781.81 0 C780.92 10.07, 781.33 19.05, 781.81 35.07 M781.81 0 C782.54 12.34, 782.25 25.6, 781.81 35.07 M781.81 35.07 C495.03 38.2, 207.62 37.79, 0 35.07 M781.81 35.07 C615.91 37.83, 450.41 38.11, 0 35.07 M0 35.07 C0.11 25.85, -1.54 21.51, 0 0 M0 35.07 C0.26 24.32, 0.55 12.47, 0 0" stroke="#1971c2" stroke-width="1" fill="none"></path></g><g stroke-linecap="round" transform="translate(58.73362273398453 323.8371638539859) rotate(0 390.9066748273925 17.536515401042067)"><path d="M0 0 C242.88 0.8, 484.95 1.35, 781.81 0 M0 0 C200.76 1.27, 401.24 1.08, 781.81 0 M781.81 0 C779.67 12.41, 781.21 22.12, 781.81 35.07 M781.81 0 C781.75 9.62, 782.82 18.29, 781.81 35.07 M781.81 35.07 C487.31 35.6, 193.93 36.34, 0 35.07 M781.81 35.07 C497.89 34.91, 213.67 34.85, 0 35.07 M0 35.07 C2.18 24.44, -0.4 12, 0 0 M0 35.07 C-1.11 22.54, -0.29 7.71, 0 0" stroke="#1971c2" stroke-width="1" fill="none"></path></g><g stroke-linecap="round" transform="translate(58.73362273398453 359.3663607347354) rotate(0 390.9066748273925 17.536515401042067)"><path d="M0 0 C262.55 1.35, 525.06 1.97, 781.81 0 M0 0 C188.43 -0.42, 376.49 0.01, 781.81 0 M781.81 0 C782.45 9.85, 781.97 22.48, 781.81 35.07 M781.81 0 C781.95 13.53, 782.3 26.31, 781.81 35.07 M781.81 35.07 C536.73 33.2, 293.06 32.17, 0 35.07 M781.81 35.07 C550.65 37.59, 319.98 37.92, 0 35.07 M0 35.07 C-0.11 29.74, 0.82 21.24, 0 0 M0 35.07 C-0.54 22.18, -0.15 8.04, 0 0" stroke="#1971c2" stroke-width="1" fill="none"></path></g><g stroke-linecap="round" transform="translate(22.872046178126823 395.0699241020109) rotate(0 425.4919009400917 17.536515401042067)"><path d="M0 0 C251.29 -3.72, 503.55 -3.06, 850.98 0 M0 0 C177.44 -1.09, 355.09 -1.33, 850.98 0 M850.98 0 C850.35 13.35, 851.13 24.2, 850.98 35.07 M850.98 0 C850.22 9.03, 850.65 19.9, 850.98 35.07 M850.98 35.07 C537.21 37.04, 223.02 37.69, 0 35.07 M850.98 35.07 C574.91 31.71, 299.04 31.95, 0 35.07 M0 35.07 C1.63 27.83, -1.32 20.87, 0 0 M0 35.07 C-0.38 23.19, -0.25 10.31, 0 0" stroke="#1971c2" stroke-width="1" fill="none"></path></g><g stroke-linecap="round" transform="translate(22.872046178126823 430.90466739197416) rotate(0 425.4919009400917 17.536515401042095)"><path d="M0 0 C178.63 -0.5, 358.55 0.21, 850.98 0 M0 0 C244.38 -2.78, 489.23 -2.78, 850.98 0 M850.98 0 C849.34 9.43, 851.9 21.85, 850.98 35.07 M850.98 0 C851.8 13.29, 850.5 26.32, 850.98 35.07 M850.98 35.07 C605.95 32.09, 360.99 32.66, 0 35.07 M850.98 35.07 C566.95 31.67, 283.15 31.96, 0 35.07 M0 35.07 C1.48 25.41, -1.25 12.26, 0 0 M0 35.07 C-0.48 27.66, -0.03 21.22, 0 0" stroke="#1971c2" stroke-width="1" fill="none"></path></g><g stroke-linecap="round" transform="translate(22.872046178126823 465.938500915855) rotate(0 425.4919009400917 17.536515401042095)"><path d="M0 0 C309.46 1.29, 618.7 0.09, 850.98 0 M0 0 C199.91 -0.18, 400.36 -0.12, 850.98 0 M850.98 0 C852.03 10.33, 852.97 25.15, 850.98 35.07 M850.98 0 C850.75 11.61, 851.18 23.38, 850.98 35.07 M850.98 35.07 C650.54 36.22, 450.59 36.28, 0 35.07 M850.98 35.07 C651.21 36.78, 451.12 36.54, 0 35.07 M0 35.07 C-2 26.68, -0.83 18.05, 0 0 M0 35.07 C-0.6 21.55, 0.85 6.79, 0 0" stroke="#1971c2" stroke-width="1" fill="none"></path></g><g stroke-linecap="round" transform="translate(59.490542006962926 500.967041561581) rotate(0 389.54614353842396 17.536515401042095)"><path d="M0 0 C237.97 1.03, 475.15 2.16, 779.09 0 M0 0 C267.21 -0.27, 534.85 -0.14, 779.09 0 M779.09 0 C781.17 12.47, 778.15 26.59, 779.09 35.07 M779.09 0 C778.55 13.77, 780.23 26.13, 779.09 35.07 M779.09 35.07 C536.22 34.61, 294.12 36.03, 0 35.07 M779.09 35.07 C599.06 36.37, 419.51 36.76, 0 35.07 M0 35.07 C-0.21 28.4, -1.58 20.98, 0 0 M0 35.07 C0.12 28.5, -0.85 20.14, 0 0" stroke="#1971c2" stroke-width="1" fill="none"></path></g><g stroke-linecap="round" transform="translate(59.689730286058875 537.5951265786488) rotate(0 389.5461435384239 17.536515401042095)"><path d="M0 0 C192.44 -1.23, 383.58 -0.98, 779.09 0 M0 0 C218.09 -2.39, 435.94 -2.46, 779.09 0 M779.09 0 C780.82 8.69, 777.48 18.62, 779.09 35.07 M779.09 0 C778.32 13.56, 778.44 26.01, 779.09 35.07 M779.09 35.07 C595.14 33.34, 408.97 32.16, 0 35.07 M779.09 35.07 C574.16 32.22, 368.82 32.53, 0 35.07 M0 35.07 C1.17 28.64, 0.55 20.8, 0 0 M0 35.07 C-0.62 26.61, -0.41 17.38, 0 0" stroke="#1971c2" stroke-width="1" fill="none"></path></g><g stroke-linecap="round" transform="translate(59.490542006962926 573.3816243598845) rotate(0 389.54614353842396 17.536515401042095)"><path d="M0 0 C184.27 1.23, 367.89 0.5, 779.09 0 M0 0 C304.33 2.15, 608.87 1.94, 779.09 0 M779.09 0 C780.2 7.82, 777.59 15.37, 779.09 35.07 M779.09 0 C779.61 7.06, 779.76 16.03, 779.09 35.07 M779.09 35.07 C607.06 33.23, 435.36 33.63, 0 35.07 M779.09 35.07 C546.96 32.53, 314.74 33.2, 0 35.07 M0 35.07 C-0.27 24.4, -1.54 11.33, 0 0 M0 35.07 C-0.3 25.8, 0.91 16.86, 0 0" stroke="#1971c2" stroke-width="1" fill="none"></path></g><g stroke-linecap="round" transform="translate(95.14853891373917 609.7204999609028) rotate(0 355.25244752150377 17.452651500127047)"><path d="M0 0 C206.22 0.32, 411.94 1.04, 710.5 0 M0 0 C164.31 0.96, 329.1 1.08, 710.5 0 M710.5 0 C711.29 11.89, 710.78 21.27, 710.5 34.91 M710.5 0 C710.82 12.76, 709.75 26.83, 710.5 34.91 M710.5 34.91 C493.41 36.07, 276.14 37.21, 0 34.91 M710.5 34.91 C504.28 32.48, 297.9 32.78, 0 34.91 M0 34.91 C-2.06 21.03, -0.02 8.24, 0 0 M0 34.91 C0.34 25.78, -0.28 15.11, 0 0" stroke="#1971c2" stroke-width="1" fill="none"></path></g><g stroke-linecap="round" transform="translate(95.04801718712469 645.6275539608663) rotate(0 355.1987203917615 17.553173226741478)"><path d="M0 0 C186.61 2.56, 373.45 3.21, 710.4 0 M0 0 C192.73 -0.76, 385.25 -0.99, 710.4 0 M710.4 0 C710.79 8.42, 712.09 13.76, 710.4 35.11 M710.4 0 C710.19 7.91, 710.68 15.25, 710.4 35.11 M710.4 35.11 C449.3 32.75, 187.36 32.95, 0 35.11 M710.4 35.11 C548.95 32.36, 387.02 32.66, 0 35.11 M0 35.11 C0.51 22.9, -0.07 13, 0 0 M0 35.11 C-0.5 24.17, -0.66 13.81, 0 0" stroke="#1971c2" stroke-width="1" fill="none"></path></g><g stroke-linecap="round" transform="translate(129.72355272403001 680.6393869262804) rotate(0 318.2968479249586 17.880735404847144)"><path d="M0 0 C173.77 -2.44, 347.74 -1.83, 636.59 0 M0 0 C176.23 -1.52, 352.78 -1.68, 636.59 0 M636.59 0 C637.26 10.84, 637.14 22.96, 636.59 35.76 M636.59 0 C636.87 13.81, 636.09 25.79, 636.59 35.76 M636.59 35.76 C412.63 33.25, 187.7 34.25, 0 35.76 M636.59 35.76 C444.81 33.62, 253.41 33.9, 0 35.76 M0 35.76 C-1.18 22.09, 0.48 9.46, 0 0 M0 35.76 C-0.67 23.55, -0.31 9.84, 0 0" stroke="#1971c2" stroke-width="1" fill="none"></path></g><g stroke-linecap="round" transform="translate(164.42658063765396 714.9001190462982) rotate(0 283.88895415812425 18.232561447997682)"><path d="M0 0 C161.32 0.08, 322.34 0.23, 567.78 0 M0 0 C140.2 0.41, 280.34 0.41, 567.78 0 M567.78 0 C569.84 9.91, 568.11 16.05, 567.78 36.47 M567.78 0 C567.75 7.83, 567.79 14.84, 567.78 36.47 M567.78 36.47 C444.84 38.42, 322.03 38.37, 0 36.47 M567.78 36.47 C418.24 37.85, 268.77 38.06, 0 36.47 M0 36.47 C1.25 25.83, 0.28 14.04, 0 0 M0 36.47 C0.75 26.53, -0.73 16.36, 0 0" stroke="#1971c2" stroke-width="1" fill="none"></path></g><g stroke-linecap="round" transform="translate(199.83001296646535 751.2674488084804) rotate(0 248.48552182931286 17.81119647134898)"><path d="M0 0 C159.73 -0.1, 320.1 -0.8, 496.97 0 M0 0 C123.14 1.61, 245.77 1.63, 496.97 0 M496.97 0 C498.41 9.2, 496.62 18.73, 496.97 35.62 M496.97 0 C497.55 10.51, 496.26 21.18, 496.97 35.62 M496.97 35.62 C350.08 34, 203.85 33.6, 0 35.62 M496.97 35.62 C318.84 34.8, 141.27 34.2, 0 35.62 M0 35.62 C-1.51 21.93, 0.59 14.02, 0 0 M0 35.62 C0.97 23.55, 0.42 13.36, 0 0" stroke="#1971c2" stroke-width="1" fill="none"></path></g><g stroke-linecap="round" transform="translate(234.7515886348615 787.1859632446669) rotate(0 213.56394616091666 17.944330452029362)"><path d="M0 0 C88.93 -1.42, 177.65 -2.01, 427.13 0 M0 0 C92.26 -1.95, 184.61 -1.99, 427.13 0 M427.13 0 C427.19 8.29, 427.82 18.82, 427.13 35.89 M427.13 0 C427.22 12.18, 426.73 23.79, 427.13 35.89 M427.13 35.89 C308.26 34.91, 187.26 34.93, 0 35.89 M427.13 35.89 C272.15 34.66, 118.68 34.51, 0 35.89 M0 35.89 C-2.03 26.68, -0.16 15.31, 0 0 M0 35.89 C0.5 25.62, 0.44 16.16, 0 0" stroke="#1971c2" stroke-width="1" fill="none"></path></g><g stroke-linecap="round" transform="translate(306.4554204856434 822.0723983519911) rotate(0 141.86011431013466 18.093440510391474)"><path d="M0 0 C79.3 -0.06, 157.77 1.58, 283.72 0 M0 0 C89.61 -0.85, 178.54 -1.12, 283.72 0 M283.72 0 C285.09 12.07, 282.89 23.82, 283.72 36.19 M283.72 0 C284.1 13.49, 284.59 25.11, 283.72 36.19 M283.72 36.19 C226.96 37.76, 170.47 39.47, 0 36.19 M283.72 36.19 C225 35.92, 167.06 35.66, 0 36.19 M0 36.19 C-0.92 23.34, -1.42 10.35, 0 0 M0 36.19 C-1.14 25.04, 0.21 12.99, 0 0" stroke="#1971c2" stroke-width="1" fill="none"></path></g><g stroke-linecap="round" transform="translate(10 10) rotate(0 439.4049160112045 437.65289125753384)"><path d="M329.22 14.98 C351.92 1.66, 381.94 3.72, 408.74 1.84 C435.54 -0.03, 463.1 0.81, 490.02 3.75 C516.94 6.68, 544.42 11.79, 570.26 19.46 C596.11 27.13, 621.25 37.36, 645.09 49.77 C668.93 62.17, 692.2 77.22, 713.29 93.87 C734.39 110.53, 754.26 129.3, 771.66 149.69 C789.05 170.08, 804.23 192.84, 817.68 216.22 C831.13 239.59, 843.15 264.78, 852.36 289.94 C861.56 315.1, 868.38 340.76, 872.91 367.19 C877.44 393.63, 880 421.88, 879.52 448.57 C879.04 475.26, 875.85 501.12, 870.04 527.32 C864.23 553.51, 855.24 580.7, 844.68 605.75 C834.12 630.81, 821.3 655.17, 806.69 677.66 C792.09 700.15, 775.65 721.51, 757.04 740.7 C738.42 759.89, 716.7 777.16, 695 792.8 C673.3 808.44, 650.94 823.08, 626.85 834.53 C602.75 845.98, 576.61 854.81, 550.44 861.51 C524.27 868.21, 496.92 872.82, 469.82 874.72 C442.72 876.62, 414.69 876.21, 387.84 872.89 C360.99 869.58, 334.25 862.69, 308.73 854.81 C283.2 846.94, 258.4 837.91, 234.7 825.63 C211 813.36, 187.62 798.08, 166.54 781.17 C145.46 764.26, 126.06 744.6, 108.22 724.17 C90.38 703.75, 73.11 681.66, 59.5 658.61 C45.89 635.56, 35.37 611.13, 26.54 585.87 C17.71 560.61, 10.9 533.5, 6.54 507.05 C2.19 480.6, -0.07 453.78, 0.4 427.15 C0.87 400.53, 3.8 373.67, 9.34 347.31 C14.89 320.95, 23.32 293.84, 33.65 269 C43.98 244.17, 56.46 220.46, 71.32 198.3 C86.17 176.15, 104.06 155.42, 122.79 136.06 C141.52 116.7, 161.9 97.88, 183.69 82.16 C205.49 66.44, 228.69 53.37, 253.57 41.74 C278.46 30.11, 318.72 15.82, 333.01 12.38 C347.3 8.94, 337.63 13.9, 339.33 21.11 M466.96 1.66 C492.59 -3.81, 519.21 7.95, 545.27 14.06 C571.33 20.16, 598.91 27.1, 623.33 38.3 C647.75 49.5, 670 65.45, 691.81 81.25 C713.63 97.05, 735.12 114.07, 754.24 133.08 C773.36 152.09, 791.64 173, 806.53 195.3 C821.41 217.61, 833.19 242.38, 843.55 266.9 C853.9 291.42, 862.71 316.56, 868.64 342.42 C874.56 368.28, 878.42 395.16, 879.12 422.07 C879.82 448.97, 876.92 477.25, 872.81 503.87 C868.7 530.48, 863.05 556.44, 854.47 581.75 C845.89 607.05, 834.99 632.5, 821.3 655.69 C807.62 678.87, 790.09 700.51, 772.38 720.83 C754.67 741.15, 735.89 760.44, 715.07 777.61 C694.25 794.78, 671.01 810.8, 647.46 823.84 C623.91 836.87, 599.56 847.73, 573.77 855.83 C547.97 863.93, 519.51 869.55, 492.7 872.45 C465.88 875.36, 439.62 874.92, 412.86 873.24 C386.09 871.56, 358.26 868.78, 332.12 862.38 C305.98 855.97, 280.35 846, 256.01 834.81 C231.66 823.61, 208.19 810.34, 186.05 795.2 C163.91 780.06, 141.83 762.97, 123.18 743.98 C104.52 724.99, 89.02 703.94, 74.11 681.27 C59.21 658.59, 44.5 632.72, 33.75 607.91 C23 583.1, 15.02 558.58, 9.59 532.4 C4.15 506.22, 1.67 477.6, 1.13 450.84 C0.59 424.08, 2.35 398.07, 6.35 371.86 C10.34 345.65, 16.22 318.97, 25.11 293.59 C34.01 268.21, 46.18 242.89, 59.7 219.58 C73.22 196.27, 88.82 173.96, 106.25 153.74 C123.69 133.53, 143.46 115.29, 164.3 98.29 C185.14 81.29, 207.66 64.47, 231.3 51.71 C254.94 38.95, 280.73 29.96, 306.13 21.72 C331.52 13.47, 357.3 5.62, 383.67 2.23 C410.05 -1.17, 450.8 0.24, 464.37 1.36 C477.94 2.48, 465.19 1.87, 465.09 8.95" stroke="#1971c2" stroke-width="2" fill="none"></path></g><g stroke-linecap="round"><g transform="translate(341.99906182636937 53.16482589254474) rotate(0 96.6525080906149 0.7660800970873822)"><path d="M-0.32 1.1 C31.92 1.08, 161.6 0.73, 193.76 0.66 M1.71 0.63 C33.8 0.67, 161.42 1.58, 193.05 1.74" stroke="#1e1e1e" stroke-width="2" fill="none"></path></g><g transform="translate(341.99906182636937 53.16482589254474) rotate(0 96.6525080906149 0.7660800970873822)"><path d="M169.51 10.14 C179 8.21, 183.44 3.57, 193.05 1.74 M169.51 10.14 C174.95 8.11, 180.87 5.71, 193.05 1.74" stroke="#1e1e1e" stroke-width="2" fill="none"></path></g><g transform="translate(341.99906182636937 53.16482589254474) rotate(0 96.6525080906149 0.7660800970873822)"><path d="M169.61 -6.96 C179.18 -3.28, 183.59 -2.31, 193.05 1.74 M169.61 -6.96 C175.11 -5.07, 181.01 -3.55, 193.05 1.74" stroke="#1e1e1e" stroke-width="2" fill="none"></path></g></g><mask></mask><g stroke-linecap="round"><g transform="translate(604.7620068101882 91.8581915883376) rotate(0 -163.3710052588997 0.5954186893203826)"><path d="M-0.62 -1.13 C-54.94 -0.65, -272.18 1.69, -326.38 2.06 M1.26 0.89 C-53.15 1.12, -272.57 0.15, -327.15 0.39" stroke="#1e1e1e" stroke-width="2" fill="none"></path></g><g transform="translate(604.7620068101882 91.8581915883376) rotate(0 -163.3710052588997 0.5954186893203826)"><path d="M-303.65 -8.15 C-311.72 -5.45, -314.51 -2.35, -327.15 0.39 M-303.65 -8.15 C-311.17 -6.55, -317.54 -2.81, -327.15 0.39" stroke="#1e1e1e" stroke-width="2" fill="none"></path></g><g transform="translate(604.7620068101882 91.8581915883376) rotate(0 -163.3710052588997 0.5954186893203826)"><path d="M-303.66 8.95 C-311.6 7.2, -314.39 5.84, -327.15 0.39 M-303.66 8.95 C-311.21 5.6, -317.58 4.4, -327.15 0.39" stroke="#1e1e1e" stroke-width="2" fill="none"></path></g></g><mask></mask><g stroke-linecap="round"><g transform="translate(232.16137978753443 129.10283155597514) rotate(0 208.2157665857605 -0.054358818770225525)"><path d="M-0.97 -0.11 C68.45 -0.02, 347.68 0.85, 417.2 1.05 M0.72 -1.21 C69.99 -1.47, 347.58 -0.56, 416.66 -0.46" stroke="#1e1e1e" stroke-width="2" fill="none"></path></g><g transform="translate(232.16137978753443 129.10283155597514) rotate(0 208.2157665857605 -0.054358818770225525)"><path d="M393.15 8.03 C401.3 6.48, 411.79 1.71, 416.66 -0.46 M393.15 8.03 C402.63 4.42, 411.41 0.98, 416.66 -0.46" stroke="#1e1e1e" stroke-width="2" fill="none"></path></g><g transform="translate(232.16137978753443 129.10283155597514) rotate(0 208.2157665857605 -0.054358818770225525)"><path d="M393.19 -9.07 C401.4 -4.53, 411.88 -3.21, 416.66 -0.46 M393.19 -9.07 C402.53 -5.87, 411.3 -2.49, 416.66 -0.46" stroke="#1e1e1e" stroke-width="2" fill="none"></path></g></g><mask></mask><g stroke-linecap="round"><g transform="translate(691.5717762276639 162.70922314173566) rotate(0 -242.81073017799355 1.5334243527508136)"><path d="M-1.13 1.07 C-81.85 1.47, -403.55 1.81, -484.44 1.97 M0.48 0.59 C-80.29 1.14, -404.01 2.57, -484.76 2.94" stroke="#1e1e1e" stroke-width="2" fill="none"></path></g><g transform="translate(691.5717762276639 162.70922314173566) rotate(0 -242.81073017799355 1.5334243527508136)"><path d="M-461.31 -5.72 C-466.41 -1.44, -476.88 -2.3, -484.76 2.94 M-461.31 -5.72 C-466.21 -3.72, -470.71 -2.26, -484.76 2.94" stroke="#1e1e1e" stroke-width="2" fill="none"></path></g><g transform="translate(691.5717762276639 162.70922314173566) rotate(0 -242.81073017799355 1.5334243527508136)"><path d="M-461.23 11.38 C-466.3 10.66, -476.79 4.8, -484.76 2.94 M-461.23 11.38 C-466.15 9.71, -470.66 7.51, -484.76 2.94" stroke="#1e1e1e" stroke-width="2" fill="none"></path></g></g><mask></mask><g stroke-linecap="round"><g transform="translate(158.87810713381282 198.06521019675182) rotate(0 287.62894417475724 0.7003438511326863)"><path d="M0.18 -1.03 C95.98 -1.03, 478.86 -0.03, 574.58 0.25 M-1.19 1.05 C95.02 1.12, 480.57 1.1, 576.94 1.18" stroke="#1e1e1e" stroke-width="2" fill="none"></path></g><g transform="translate(158.87810713381282 198.06521019675182) rotate(0 287.62894417475724 0.7003438511326863)"><path d="M553.44 9.72 C558.33 6.15, 564.75 3.63, 576.94 1.18 M553.44 9.72 C558.05 8.46, 564.77 6.49, 576.94 1.18" stroke="#1e1e1e" stroke-width="2" fill="none"></path></g><g transform="translate(158.87810713381282 198.06521019675182) rotate(0 287.62894417475724 0.7003438511326863)"><path d="M553.45 -7.38 C558.37 -6.13, 564.79 -3.83, 576.94 1.18 M553.45 -7.38 C558.1 -4.63, 564.81 -2.57, 576.94 1.18" stroke="#1e1e1e" stroke-width="2" fill="none"></path></g></g><mask></mask><g stroke-linecap="round"><g transform="translate(768.52616538624 235.90147637798162) rotate(0 -321.86362257281553 -0.1479065533980588)"><path d="M0.87 0.82 C-106.39 0.86, -536.85 1.11, -644.34 0.82 M-0.13 0.2 C-106.93 -0.11, -534.47 -0.7, -641.95 -0.72" stroke="#1e1e1e" stroke-width="2" fill="none"></path></g><g transform="translate(768.52616538624 235.90147637798162) rotate(0 -321.86362257281553 -0.1479065533980588)"><path d="M-618.45 -9.25 C-622.63 -8.08, -627.72 -5.63, -641.95 -0.72 M-618.45 -9.25 C-624.01 -7.61, -629.63 -5.74, -641.95 -0.72" stroke="#1e1e1e" stroke-width="2" fill="none"></path></g><g transform="translate(768.52616538624 235.90147637798162) rotate(0 -321.86362257281553 -0.1479065533980588)"><path d="M-618.47 7.85 C-622.72 4.96, -627.81 3.35, -641.95 -0.72 M-618.47 7.85 C-623.89 5.28, -629.51 2.94, -641.95 -0.72" stroke="#1e1e1e" stroke-width="2" fill="none"></path></g></g><mask></mask><g stroke-linecap="round"><g transform="translate(125.62630857052011 270.97740561189534) rotate(0 322.7730789494593 -0.10899877318371409)"><path d="M0.33 -0.46 C107.98 -0.41, 539.07 0.77, 646.57 0.92 M-0.96 -1.75 C106.56 -2.06, 538.59 -0.63, 646.16 -0.6" stroke="#1e1e1e" stroke-width="2" fill="none"></path></g><g transform="translate(125.62630857052011 270.97740561189534) rotate(0 322.7730789494593 -0.10899877318371409)"><path d="M622.65 7.91 C630.23 6.5, 641.31 1.41, 646.16 -0.6 M622.65 7.91 C631.45 3.77, 639.04 2.24, 646.16 -0.6" stroke="#1e1e1e" stroke-width="2" fill="none"></path></g><g transform="translate(125.62630857052011 270.97740561189534) rotate(0 322.7730789494593 -0.10899877318371409)"><path d="M622.68 -9.19 C630.34 -4.48, 641.41 -3.47, 646.16 -0.6 M622.68 -9.19 C631.64 -7.26, 639.21 -2.72, 646.16 -0.6" stroke="#1e1e1e" stroke-width="2" fill="none"></path></g></g><mask></mask><g stroke-linecap="round"><g transform="translate(809.4920012724293 309.0161300161753) rotate(0 -359.17312688231647 -0.5856374762582277)"><path d="M-0.81 -0.31 C-120.4 -0.34, -598.41 -0.07, -717.87 -0.41 M0.96 -1.53 C-118.72 -1.86, -598.75 -2.11, -718.57 -2.13" stroke="#1e1e1e" stroke-width="2" fill="none"></path></g><g transform="translate(809.4920012724293 309.0161300161753) rotate(0 -359.17312688231647 -0.5856374762582277)"><path d="M-695.07 -10.67 C-702.02 -7.71, -706.62 -4.88, -718.57 -2.13 M-695.07 -10.67 C-700.44 -9.2, -704.56 -6.96, -718.57 -2.13" stroke="#1e1e1e" stroke-width="2" fill="none"></path></g><g transform="translate(809.4920012724293 309.0161300161753) rotate(0 -359.17312688231647 -0.5856374762582277)"><path d="M-695.08 6.43 C-701.98 4.73, -706.59 2.91, -718.57 -2.13 M-695.08 6.43 C-700.47 4.46, -704.58 3.26, -718.57 -2.13" stroke="#1e1e1e" stroke-width="2" fill="none"></path></g></g><mask></mask><g stroke-linecap="round"><g transform="translate(88.0198843853077 342.1887058006946) rotate(0 358.4008982858624 -0.09052440484748558)"><path d="M-0.88 -0.32 C118.68 -0.34, 597.02 0.71, 716.56 0.71 M0.85 -1.53 C120.31 -1.95, 596.4 -1.35, 715.49 -0.94" stroke="#1e1e1e" stroke-width="2" fill="none"></path></g><g transform="translate(88.0198843853077 342.1887058006946) rotate(0 358.4008982858624 -0.09052440484748558)"><path d="M691.98 7.56 C696.86 5.36, 704.33 3.04, 715.49 -0.94 M691.98 7.56 C698.08 5.06, 706.45 2.33, 715.49 -0.94" stroke="#1e1e1e" stroke-width="2" fill="none"></path></g><g transform="translate(88.0198843853077 342.1887058006946) rotate(0 358.4008982858624 -0.09052440484748558)"><path d="M692.01 -9.54 C697.01 -7.77, 704.47 -6.12, 715.49 -0.94 M692.01 -9.54 C698.12 -7.12, 706.48 -4.91, 715.49 -0.94" stroke="#1e1e1e" stroke-width="2" fill="none"></path></g></g><mask></mask><g stroke-linecap="round"><g transform="translate(812.8580311832889 379.16700146247535) rotate(0 -364.2886794746162 -1.086292858169827)"><path d="M0.83 0.2 C-120.39 -0.4, -606.34 -2.62, -728.06 -2.88 M-0.19 -0.74 C-121.47 -1.26, -607.59 -1.29, -728.74 -1.71" stroke="#1e1e1e" stroke-width="2" fill="none"></path></g><g transform="translate(812.8580311832889 379.16700146247535) rotate(0 -364.2886794746162 -1.086292858169827)"><path d="M-705.23 -10.22 C-710.52 -7.14, -717.71 -7.44, -728.74 -1.71 M-705.23 -10.22 C-713.59 -6.31, -723.19 -2.88, -728.74 -1.71" stroke="#1e1e1e" stroke-width="2" fill="none"></path></g><g transform="translate(812.8580311832889 379.16700146247535) rotate(0 -364.2886794746162 -1.086292858169827)"><path d="M-705.26 6.88 C-710.65 5.83, -717.83 1.4, -728.74 -1.71 M-705.26 6.88 C-713.74 4.47, -723.33 1.59, -728.74 -1.71" stroke="#1e1e1e" stroke-width="2" fill="none"></path></g></g><mask></mask><g stroke-linecap="round"><g transform="translate(55.93813702157374 411.60954025367096) rotate(0 392.38934947990333 0.2692978091941143)"><path d="M0.5 -0.82 C131.01 -0.71, 653.18 0.52, 784.09 0.75 M-0.7 1.36 C130.12 1.08, 655.36 -1.35, 786.45 -1.27" stroke="#1e1e1e" stroke-width="2" fill="none"></path></g><g transform="translate(55.93813702157374 411.60954025367096) rotate(0 392.38934947990333 0.2692978091941143)"><path d="M762.97 7.34 C770.62 2.79, 781.37 2.59, 786.45 -1.27 M762.97 7.34 C770.71 4.01, 776.77 3.26, 786.45 -1.27" stroke="#1e1e1e" stroke-width="2" fill="none"></path></g><g transform="translate(55.93813702157374 411.60954025367096) rotate(0 392.38934947990333 0.2692978091941143)"><path d="M762.93 -9.76 C770.61 -7.73, 781.37 -1.36, 786.45 -1.27 M762.93 -9.76 C770.71 -7.94, 776.78 -3.54, 786.45 -1.27" stroke="#1e1e1e" stroke-width="2" fill="none"></path></g></g><mask></mask><g stroke-linecap="round"><g transform="translate(845.7661699037699 446.8247171026194) rotate(0 -397.65412164964806 0.41067915902101504)"><path d="M0.78 0.85 C-132.06 1.26, -663.64 2.16, -796.35 2.01 M-0.27 0.26 C-132.81 0.39, -661.5 0.42, -794.18 0.51" stroke="#1e1e1e" stroke-width="2" fill="none"></path></g><g transform="translate(845.7661699037699 446.8247171026194) rotate(0 -397.65412164964806 0.41067915902101504)"><path d="M-770.69 -8.05 C-777.7 -6.56, -785.56 -2.06, -794.18 0.51 M-770.69 -8.05 C-775.04 -6.34, -781.63 -5.09, -794.18 0.51" stroke="#1e1e1e" stroke-width="2" fill="none"></path></g><g transform="translate(845.7661699037699 446.8247171026194) rotate(0 -397.65412164964806 0.41067915902101504)"><path d="M-770.68 9.05 C-777.64 4.41, -785.5 2.8, -794.18 0.51 M-770.68 9.05 C-774.91 6.92, -781.5 4.34, -794.18 0.51" stroke="#1e1e1e" stroke-width="2" fill="none"></path></g></g><mask></mask><g stroke-linecap="round"><g transform="translate(54.19218955863195 485.51832398699173) rotate(0 394.7883441301408 -0.9582513710490161)"><path d="M0.77 -0.82 C132.44 -1.1, 658.82 -1.24, 790.46 -1.39 M-0.29 1.36 C131.26 0.7, 658.19 -2.95, 789.97 -3.24" stroke="#1e1e1e" stroke-width="2" fill="none"></path></g><g transform="translate(54.19218955863195 485.51832398699173) rotate(0 394.7883441301408 -0.9582513710490161)"><path d="M766.52 5.43 C772.97 3.85, 783.06 1.2, 789.97 -3.24 M766.52 5.43 C774.31 2.12, 781.82 -0.54, 789.97 -3.24" stroke="#1e1e1e" stroke-width="2" fill="none"></path></g><g transform="translate(54.19218955863195 485.51832398699173) rotate(0 394.7883441301408 -0.9582513710490161)"><path d="M766.44 -11.67 C772.96 -7.53, 783.07 -4.46, 789.97 -3.24 M766.44 -11.67 C774.11 -9.61, 781.64 -6.92, 789.97 -3.24" stroke="#1e1e1e" stroke-width="2" fill="none"></path></g></g><mask></mask><g stroke-linecap="round"><g transform="translate(806.7404290547247 518.6733725956053) rotate(0 -357.4300055496892 -0.16157868551647425)"><path d="M1.07 0.95 C-118.16 0.92, -595.66 0.82, -715.07 0.66 M0.18 0.4 C-119.26 -0.01, -596.69 -1.12, -716.13 -0.95" stroke="#1e1e1e" stroke-width="2" fill="none"></path></g><g transform="translate(806.7404290547247 518.6733725956053) rotate(0 -357.4300055496892 -0.16157868551647425)"><path d="M-692.63 -9.48 C-698.71 -6.82, -706.37 -4.58, -716.13 -0.95 M-692.63 -9.48 C-701.04 -6.51, -706.92 -3.18, -716.13 -0.95" stroke="#1e1e1e" stroke-width="2" fill="none"></path></g><g transform="translate(806.7404290547247 518.6733725956053) rotate(0 -357.4300055496892 -0.16157868551647425)"><path d="M-692.64 7.62 C-698.83 4.67, -706.49 1.29, -716.13 -0.95 M-692.64 7.62 C-701.12 5.07, -707 2.87, -716.13 -0.95" stroke="#1e1e1e" stroke-width="2" fill="none"></path></g></g><mask></mask><g stroke-linecap="round"><g transform="translate(96.05004570103495 556.0519085117464) rotate(0 353.84610053899775 -0.9447864805893005)"><path d="M0.81 0.28 C118.74 0.25, 589.63 -0.63, 707.34 -1 M-0.23 -0.61 C117.53 -0.91, 588.5 -2.65, 706.21 -2.66" stroke="#1e1e1e" stroke-width="2" fill="none"></path></g><g transform="translate(96.05004570103495 556.0519085117464) rotate(0 353.84610053899775 -0.9447864805893005)"><path d="M682.74 5.94 C689.85 2.78, 697.45 -0.04, 706.21 -2.66 M682.74 5.94 C689.59 4, 695.58 0.72, 706.21 -2.66" stroke="#1e1e1e" stroke-width="2" fill="none"></path></g><g transform="translate(96.05004570103495 556.0519085117464) rotate(0 353.84610053899775 -0.9447864805893005)"><path d="M682.7 -11.16 C689.72 -9.52, 697.32 -7.54, 706.21 -2.66 M682.7 -11.16 C689.67 -8.07, 695.68 -6.31, 706.21 -2.66" stroke="#1e1e1e" stroke-width="2" fill="none"></path></g></g><mask></mask><g stroke-linecap="round"><g transform="translate(807.2655597826533 589.9520143924638) rotate(0 -360.2666091398671 1.5170443251267898)"><path d="M-0.08 -0.07 C-120.24 0.51, -600.55 2.79, -720.8 3.32 M-1.59 -1.16 C-121.93 -0.94, -602.27 0.42, -721.89 1.34" stroke="#1e1e1e" stroke-width="2" fill="none"></path></g><g transform="translate(807.2655597826533 589.9520143924638) rotate(0 -360.2666091398671 1.5170443251267898)"><path d="M-698.44 -7.32 C-705.83 -5.1, -712.5 -3.74, -721.89 1.34 M-698.44 -7.32 C-705.16 -5.13, -713 -1.13, -721.89 1.34" stroke="#1e1e1e" stroke-width="2" fill="none"></path></g><g transform="translate(807.2655597826533 589.9520143924638) rotate(0 -360.2666091398671 1.5170443251267898)"><path d="M-698.35 9.78 C-705.75 6.71, -712.44 2.77, -721.89 1.34 M-698.35 9.78 C-704.99 6.8, -712.85 5.63, -721.89 1.34" stroke="#1e1e1e" stroke-width="2" fill="none"></path></g></g><mask></mask><g stroke-linecap="round"><g transform="translate(126.04982164525768 626.4014728668851) rotate(0 325.10529185275743 -0.25358877032442706)"><path d="M1.13 0.21 C109.8 -0.2, 542.83 -1.74, 651.19 -1.67 M0.27 -0.73 C108.94 -1.11, 542.29 -0.68, 650.76 -0.74" stroke="#1e1e1e" stroke-width="2" fill="none"></path></g><g transform="translate(126.04982164525768 626.4014728668851) rotate(0 325.10529185275743 -0.25358877032442706)"><path d="M627.26 7.8 C633.02 7.23, 636.19 5.42, 650.76 -0.74 M627.26 7.8 C636.47 4.85, 645.74 0.26, 650.76 -0.74" stroke="#1e1e1e" stroke-width="2" fill="none"></path></g><g transform="translate(126.04982164525768 626.4014728668851) rotate(0 325.10529185275743 -0.25358877032442706)"><path d="M627.27 -9.3 C633.13 -5.9, 636.31 -3.73, 650.76 -0.74 M627.27 -9.3 C636.33 -5.5, 645.6 -3.34, 650.76 -0.74" stroke="#1e1e1e" stroke-width="2" fill="none"></path></g></g><mask></mask><g stroke-linecap="round"><g transform="translate(767.0593968699741 661.6749975744924) rotate(0 -319.0842416688593 0.44209723676033263)"><path d="M0.09 1.01 C-106.15 1, -531.46 0.51, -637.9 0.37 M-1.32 0.5 C-107.66 0.61, -532.34 1.53, -638.71 1.64" stroke="#1e1e1e" stroke-width="2" fill="none"></path></g><g transform="translate(767.0593968699741 661.6749975744924) rotate(0 -319.0842416688593 0.44209723676033263)"><path d="M-615.23 -6.95 C-619.7 -4.22, -628.43 -3.02, -638.71 1.64 M-615.23 -6.95 C-620.8 -3.96, -626.2 -1.72, -638.71 1.64" stroke="#1e1e1e" stroke-width="2" fill="none"></path></g><g transform="translate(767.0593968699741 661.6749975744924) rotate(0 -319.0842416688593 0.44209723676033263)"><path d="M-615.2 10.15 C-619.74 8.38, -628.48 5.07, -638.71 1.64 M-615.2 10.15 C-620.69 9, -626.09 7.1, -638.71 1.64" stroke="#1e1e1e" stroke-width="2" fill="none"></path></g></g><mask></mask><g stroke-linecap="round"><g transform="translate(165.40320816215547 697.303097730872) rotate(0 284.22139612027314 0.154846240286588)"><path d="M-0.57 0.17 C93.94 0.14, 472.82 -0.07, 567.83 0.04 M1.33 -0.79 C96.17 -0.66, 475.56 1.51, 570.22 1.43" stroke="#1e1e1e" stroke-width="2" fill="none"></path></g><g transform="translate(165.40320816215547 697.303097730872) rotate(0 284.22139612027314 0.154846240286588)"><path d="M546.7 9.91 C555.53 5.91, 563.37 5.57, 570.22 1.43 M546.7 9.91 C555.55 6.94, 562.64 4.28, 570.22 1.43" stroke="#1e1e1e" stroke-width="2" fill="none"></path></g><g transform="translate(165.40320816215547 697.303097730872) rotate(0 284.22139612027314 0.154846240286588)"><path d="M546.75 -7.19 C555.59 -4.96, 563.41 0.94, 570.22 1.43 M546.75 -7.19 C555.69 -4.32, 562.75 -1.16, 570.22 1.43" stroke="#1e1e1e" stroke-width="2" fill="none"></path></g></g><mask></mask><g stroke-linecap="round"><g transform="translate(696.3417921756035 733.7570445021133) rotate(0 -246.4703315680802 -1.2140842897835)"><path d="M0.96 -0.33 C-81 -0.83, -410.55 -2.04, -492.87 -2.4 M0 -1.56 C-82.01 -1.9, -411.49 -0.9, -493.79 -0.85" stroke="#1e1e1e" stroke-width="2" fill="none"></path></g><g transform="translate(696.3417921756035 733.7570445021133) rotate(0 -246.4703315680802 -1.2140842897835)"><path d="M-470.31 -9.45 C-475.72 -7.36, -480.02 -5.77, -493.79 -0.85 M-470.31 -9.45 C-477.06 -7.4, -484.36 -5.14, -493.79 -0.85" stroke="#1e1e1e" stroke-width="2" fill="none"></path></g><g transform="translate(696.3417921756035 733.7570445021133) rotate(0 -246.4703315680802 -1.2140842897835)"><path d="M-470.28 7.65 C-475.78 6.18, -480.09 4.2, -493.79 -0.85 M-470.28 7.65 C-476.89 4.71, -484.21 1.98, -493.79 -0.85" stroke="#1e1e1e" stroke-width="2" fill="none"></path></g></g><mask></mask><g stroke-linecap="round"><g transform="translate(235.68544806499574 769.5646765312888) rotate(0 214.71338741886598 -1.2836528904919078)"><path d="M0.47 -0.49 C72 -0.96, 356.67 -3.08, 428.31 -3.46 M-0.74 -1.8 C71.22 -2.08, 358.64 -2.43, 430.44 -2.39" stroke="#1e1e1e" stroke-width="2" fill="none"></path></g><g transform="translate(235.68544806499574 769.5646765312888) rotate(0 214.71338741886598 -1.2836528904919078)"><path d="M406.95 6.17 C411.5 2.29, 416.16 3.71, 430.44 -2.39 M406.95 6.17 C413.19 2.88, 420.57 0.68, 430.44 -2.39" stroke="#1e1e1e" stroke-width="2" fill="none"></path></g><g transform="translate(235.68544806499574 769.5646765312888) rotate(0 214.71338741886598 -1.2836528904919078)"><path d="M406.95 -10.93 C411.4 -10.94, 416.06 -5.64, 430.44 -2.39 M406.95 -10.93 C413.13 -9.38, 420.51 -6.72, 430.44 -2.39" stroke="#1e1e1e" stroke-width="2" fill="none"></path></g></g><mask></mask><g stroke-linecap="round"><g transform="translate(595.8847327525643 803.9405418749157) rotate(0 -155.3377087883868 -0.1705552791562468)"><path d="M0.8 0.48 C-51.08 0.33, -258.44 0.29, -310.23 0.27 M-0.23 -0.31 C-52.33 -0.31, -259.26 -1.32, -310.94 -1.54" stroke="#1e1e1e" stroke-width="2" fill="none"></path></g><g transform="translate(595.8847327525643 803.9405418749157) rotate(0 -155.3377087883868 -0.1705552791562468)"><path d="M-287.41 -9.98 C-295.7 -5.79, -304.66 -2.01, -310.94 -1.54 M-287.41 -9.98 C-295.69 -7.72, -304.5 -3.15, -310.94 -1.54" stroke="#1e1e1e" stroke-width="2" fill="none"></path></g><g transform="translate(595.8847327525643 803.9405418749157) rotate(0 -155.3377087883868 -0.1705552791562468)"><path d="M-287.49 7.12 C-295.91 4.65, -304.85 1.76, -310.94 -1.54 M-287.49 7.12 C-295.68 3.26, -304.46 1.72, -310.94 -1.54" stroke="#1e1e1e" stroke-width="2" fill="none"></path></g></g><mask></mask><g stroke-linecap="round"><g transform="translate(340.5500149651783 839.8154983563898) rotate(0 112.97043095692499 1.2028635477336138)"><path d="M-0.31 0.9 C37.39 1.16, 187.89 1.01, 225.79 1.31 M1.73 0.33 C39.29 0.72, 187.23 1.64, 224.76 2.27" stroke="#1e1e1e" stroke-width="2" fill="none"></path></g><g transform="translate(340.5500149651783 839.8154983563898) rotate(0 112.97043095692499 1.2028635477336138)"><path d="M201.18 10.57 C209 8.16, 211.97 8.13, 224.76 2.27 M201.18 10.57 C208.27 8.24, 217.01 4.14, 224.76 2.27" stroke="#1e1e1e" stroke-width="2" fill="none"></path></g><g transform="translate(340.5500149651783 839.8154983563898) rotate(0 112.97043095692499 1.2028635477336138)"><path d="M201.36 -6.53 C209.1 -4.37, 212.02 0.16, 224.76 2.27 M201.36 -6.53 C208.42 -3.33, 217.1 -1.91, 224.76 2.27" stroke="#1e1e1e" stroke-width="2" fill="none"></path></g></g><mask></mask></svg>